# xmcd
#
# Track frame offsets:
#	187
#	14500
#	29232
#	41455
#	59140
#	75745
#	91027
#	106837
#	118057
#	129000
#	145040
#	160212
#	177690
#	198787
#	219672
#	238635
#	253010
#
# Disc length: 3627 seconds
#
# Revision: 1
# Processed by: cddbd v1.5.1PL0 Copyright (c) Steve Scherf et al.
# Submitted via: CDex 1.50Beta5
#
DISCID=ec0e2911
DTITLE=かぐや姫 - ニューミュージック・ベスト17
DYEAR=1994
DGENRE=
TTITLE0=かぐや姫/神田川
TTITLE1=かぐや姫/なごり雪
TTITLE2=かぐや姫/僕の胸でおやすみ
TTITLE3=かぐや姫/赤ちょうちん
TTITLE4=南こうせつ/夏の少女
TTITLE5=南こうせつ/海になりたい
TTITLE6=かぐや姫/置手紙
TTITLE7=かぐや姫/ペテン師
TTITLE8=かぐや姫/雨が空から降れば
TTITLE9=かぐや姫/けれど生きている
TTITLE10=南こうせつ/荻窪二丁目
TTITLE11=南こうせつ/帰っておいでよ
TTITLE12=南こうせつ/今日は雨
TTITLE13=南こうせつ/九州へ帰る友へ
TTITLE14=かぐや姫/妹
TTITLE15=かぐや姫/22才の別れ
TTITLE16=南こうせつ/夢一夜
EXTD=
EXTT0=
EXTT1=
EXTT2=
EXTT3=
EXTT4=
EXTT5=
EXTT6=
EXTT7=
EXTT8=
EXTT9=
EXTT10=
EXTT11=
EXTT12=
EXTT13=
EXTT14=
EXTT15=
EXTT16=
PLAYORDER=
